<svg xmlns="http://www.w3.org/2000/svg" width="120" height="120" viewBox="0 0 120 120"><rect width="100%" height="100%" fill="#E0E0E0"/><path fill="#333333" d="M28.03 61.595h4.14l-1.59-4.33q-.11-.29-.24-.69-.13-.39-.25-.85-.12.46-.25.86-.12.4-.24.69zm3.3-8.1 5.11 13.01h-1.87q-.32 0-.51-.16-.2-.16-.3-.39l-.97-2.65H27.4l-.98 2.65q-.07.21-.27.38-.21.17-.52.17h-1.89l5.12-13.01zm15.66 0h1.95l-5.25 13.01H41.5l-5.26-13.01h1.95q.31 0 .51.15t.3.39l3.07 7.94q.15.39.29.85.14.47.26.97.11-.5.24-.97.12-.46.28-.85l3.05-7.94q.07-.2.28-.37t.52-.17m6.04 8.1h4.14l-1.59-4.33q-.11-.29-.24-.69-.12-.39-.25-.85-.12.46-.24.86-.13.4-.25.69zm3.3-8.1 5.11 13.01h-1.87q-.31 0-.51-.16t-.3-.39l-.97-2.65H52.4l-.97 2.65q-.08.21-.28.38-.21.17-.52.17h-1.89l5.13-13.01zm15.55 0v1.98h-3.92v11.03h-2.42v-11.03h-3.93v-1.98zm4.45 8.1h4.14l-1.58-4.33q-.12-.29-.25-.69-.12-.39-.25-.85-.12.46-.24.86-.13.4-.25.69zm3.3-8.1 5.11 13.01h-1.87q-.31 0-.51-.16t-.3-.39l-.97-2.65H75.7l-.97 2.65q-.07.21-.28.38t-.51.17h-1.89l5.12-13.01zm8.89 6.19h1.51q.68 0 1.19-.17t.84-.48q.33-.3.49-.71.16-.42.16-.91 0-.99-.65-1.52-.66-.53-2-.53h-1.54zm4.48 2.01 3.26 4.81h-2.19q-.62 0-.9-.49l-2.74-4.16q-.15-.24-.34-.34-.18-.1-.54-.1h-1.03v5.09h-2.43v-13.01h3.97q1.33 0 2.28.27t1.55.77q.61.49.9 1.18t.29 1.52q0 .66-.2 1.24-.19.59-.56 1.06-.36.48-.9.84-.53.36-1.21.57.23.13.43.32.2.18.36.43"/></svg>